<svg width="2822" height="1274" viewBox="0 0 2822 1274" fill="none" xmlns="http://www.w3.org/2000/svg">
<g clip-path="url(#clip0_568_375)">
<g opacity="0.7">
<path d="M2389.5 1191L2430.85 1055.62L2412.5 773.5L2389.5 1191Z" fill="#D00868"/>
<path d="M2389.5 1190.5L2491.02 1202.13L2430.85 1055.62L2389.5 1190.5Z" fill="#F67341"/>
<path d="M2822 1142.87L2575.27 668.151L2412.5 774L2430.85 1055.62L2822 1142.87Z" fill="#FCB61A"/>
<path d="M2491.03 1202.13L2822 1142.86L2430.85 1055.62L2491.03 1202.13Z" fill="#BBA3C7"/>
<path d="M2822 578.803L2605.36 287.897L2524.12 491.562L2822 578.803Z" fill="#C8B7D0"/>
<path d="M2524.12 491.562L2605.36 287.897L2376.69 305.947L2524.12 491.562Z" fill="#F07391"/>
<path d="M2822 578.804L2524.12 491.562L2575.27 668.151L2822 578.804Z" fill="#BFFF00"/>
<path d="M2822 1142.87V698.235L2575.27 668.151L2822 1142.87Z" fill="#F07391"/>
<path d="M2822 698.235V578.804L2575.27 668.151L2822 698.235Z" fill="#57BFD8"/>
<path d="M2822 578.803V254.806L2605.36 287.897L2822 578.803Z" fill="#D00868"/>
<path d="M2822 254.806V0L2605.13 287.399L2822 254.806Z" fill="#57BFD8"/>
<path d="M540.5 242L404.999 383L557 372L540.5 242Z" fill="#BBA3C7"/>
<path d="M0 769.389L467.5 757.5L269.531 518.982L0 769.389Z" fill="#D00868"/>
<path d="M0 769.39V1007.99L191.5 764.5L0 769.39Z" fill="#F07391"/>
<path d="M-0.999023 1008L224.501 966.001L191.501 764.001L-0.999023 1008Z" fill="#F67341"/>
<path d="M224.104 965.598L0 1252.34L351.299 1273.54L224.104 965.598Z" fill="#57BFD8"/>
<path d="M0 1007.99V1252.34L224.104 965.598L0 1007.99Z" fill="#D00868"/>
<path d="M0 567.428V769.389L269.531 518.982L0 567.428Z" fill="#57BFD8"/>
<path d="M0 271.603V567.428L269.531 518.982L0 271.603Z" fill="#BFFF00"/>
<path d="M0 271.603L269.531 518.982L542 244L351.299 156.542L0 271.603Z" fill="#57BFD8"/>
<path d="M251.36 0H0V271.603L251.36 0Z" fill="#F5C457"/>
</g>
</g>
<defs>
<clipPath id="clip0_568_375">
<rect width="2822" height="1274" fill="white"/>
</clipPath>
</defs>
</svg>
